<?xml version="1.0" standalone="no"?>
<!DOCTYPE svg PUBLIC "-//W3C//DTD SVG 20010904//EN"
 "http://www.w3.org/TR/2001/REC-SVG-20010904/DTD/svg10.dtd">
<svg version="1.0" xmlns="http://www.w3.org/2000/svg"
 width="494.000000pt" height="505.000000pt" viewBox="0 0 494.000000 505.000000"
 preserveAspectRatio="xMidYMid meet">

<g transform="translate(0.000000,505.000000) scale(0.100000,-0.100000)"
fill="#000000" stroke="none">
<path d="M464 4581 c-29 -13 -54 -55 -54 -93 0 -30 152 -185 1983 -2016 1090
-1091 1995 -1990 2011 -1999 71 -37 153 30 132 110 -3 12 -379 395 -836 852
-456 456 -826 831 -820 833 14 5 137 -42 240 -91 113 -53 266 -159 366 -251
l81 -75 169 176 c93 97 215 224 271 282 l103 106 -63 60 c-34 33 -96 88 -137
123 -74 61 -243 182 -255 182 -4 0 -19 8 -33 19 -113 80 -411 203 -599 247
-190 45 -281 56 -489 61 -139 4 -239 1 -295 -7 -46 -6 -106 -14 -133 -17 l-48
-6 -159 159 c-87 87 -159 162 -159 165 0 9 95 34 215 58 543 107 1093 46 1593
-176 113 -50 314 -158 366 -197 17 -13 45 -31 61 -39 17 -8 39 -24 50 -34 11
-10 47 -38 80 -63 61 -45 102 -80 211 -182 33 -32 64 -58 68 -58 4 0 35 28 68
63 75 78 464 480 472 488 8 8 -222 216 -344 311 -311 242 -641 418 -1015 543
-368 123 -700 176 -1090 176 -448 -1 -813 -69 -1249 -233 l-108 -40 -282 281
c-242 242 -287 282 -316 286 -19 3 -44 1 -56 -4z m2381 -500 c280 -37 491 -86
700 -161 320 -115 549 -237 866 -460 68 -48 234 -190 234 -200 0 -8 -257 -280
-265 -280 -5 0 -64 47 -125 99 -293 248 -814 494 -1204 567 -470 88 -934 70
-1354 -52 l-120 -35 -154 153 c-84 84 -149 155 -145 159 16 14 191 72 372 124
125 36 367 79 535 94 117 11 558 6 660 -8z m5 -1194 c342 -63 713 -239 959
-456 l25 -22 -45 -47 c-25 -26 -87 -91 -138 -144 l-94 -97 -36 30 c-52 43
-135 102 -176 125 -11 6 -47 27 -80 46 -65 37 -263 119 -330 137 -110 29 -173
42 -238 47 l-72 7 -192 190 c-106 105 -193 195 -193 199 0 12 87 16 285 13
148 -3 220 -9 325 -28z"/>
<path d="M720 3813 c-161 -105 -236 -156 -320 -219 -130 -96 -372 -313 -368
-329 2 -10 161 -177 481 -507 27 -27 52 -48 57 -46 4 2 37 30 72 63 179 168
392 323 581 420 53 28 97 53 97 57 0 7 -89 98 -123 126 -13 11 -25 8 -79 -19
-127 -64 -351 -217 -470 -321 -36 -32 -70 -58 -75 -58 -5 0 -23 15 -39 33 -16
17 -76 80 -133 140 l-103 107 24 23 c33 31 175 147 213 174 72 52 254 172 300
198 28 15 51 29 53 30 3 2 -137 146 -141 144 -1 0 -13 -7 -27 -16z"/>
<path d="M1565 2922 c-195 -86 -392 -211 -562 -357 -59 -51 -120 -105 -135
-121 l-27 -29 116 -120 c64 -66 185 -193 270 -282 l155 -162 98 88 c199 179
402 286 659 350 46 12 92 21 102 21 11 0 19 2 19 5 0 3 -36 41 -79 84 l-79 79
-44 -9 c-24 -6 -61 -16 -83 -24 -22 -8 -60 -22 -85 -30 -46 -17 -229 -104
-265 -127 -77 -50 -184 -126 -205 -146 l-25 -24 -137 143 c-76 79 -138 146
-138 150 0 11 188 150 275 204 105 65 292 156 348 170 15 4 27 11 27 15 0 8
-98 111 -131 137 -12 9 -27 6 -74 -15z"/>
<path d="M2255 1911 c-96 -21 -154 -41 -243 -82 -88 -41 -234 -144 -299 -211
l-52 -53 87 -92 c131 -138 470 -491 631 -656 l96 -99 150 155 c82 85 236 243
341 352 l190 198 -67 68 -68 68 -104 -107 c-58 -59 -127 -130 -153 -158 -27
-28 -101 -106 -165 -172 -64 -67 -121 -122 -127 -122 -6 0 -20 12 -31 27 -16
20 -257 271 -488 509 -20 20 -16 27 30 56 110 69 203 106 332 133 103 22 277
16 389 -14 78 -21 244 -97 279 -128 9 -9 17 -13 17 -9 0 4 -73 81 -162 172
-137 139 -169 166 -203 174 -66 16 -291 10 -380 -9z"/>
</g>
</svg>
